<svg width="1075" height="369" viewBox="0 0 1075 369" fill="none" xmlns="http://www.w3.org/2000/svg">
<style>
  .seg {
    fill: none;
    stroke: #111111;
    stroke-width: 4;
    stroke-linecap: round;
    stroke-linejoin: round;
    pathLength: 1;
    stroke-dasharray: 1;
    stroke-dashoffset: 1;
    animation: signature-write 0.14s linear forwards;
  }

  @keyframes signature-write {
    to {
      stroke-dashoffset: 0;
    }
  }
</style>
<path class="seg" d="M70.4295 366.809C923.229 140.009 1034.1 169.309 982.93 212.309" style="animation-delay: 0.00s"/>
<path class="seg" d="M34.52 250.713C25.6887 251.641 18.3464 249.517 12.4933 244.34C6.65264 239.283 3.24314 232.1 2.26475 222.791C1.24874 213.125 3.15643 204.297 7.98784 196.308C13.4851 187.767 20.8881 183.007 30.1969 182.028C32.9418 181.74 35.5295 182.252 37.9601 183.565C40.6042 184.615 42.0706 186.512 42.3591 189.257C42.4218 189.853 42.2867 190.29 41.9537 190.566C41.4452 189.172 40.789 188.095 39.9851 187.334C38.5784 185.431 36.0253 184.674 32.3257 185.063C23.9717 185.941 17.6145 190.892 13.254 199.917C9.36476 207.687 7.88425 215.987 8.81247 224.818C9.6027 232.337 12.0326 238.235 16.102 242.513C20.4854 247.482 26.3768 249.578 33.776 248.8C47.8585 247.32 60.526 236.396 71.7786 216.028C77.6343 205.157 82.5541 194.564 86.5379 184.251C90.5092 173.819 93.4786 163.613 95.4461 153.633C95.993 150.8 96.4803 147.973 96.9078 145.153C97.4422 142.201 97.8446 139.142 98.1152 135.977C98.241 134.878 98.3951 133.474 98.5775 131.765C98.76 130.057 98.9895 128.223 99.2662 126.263C99.8446 122.583 101.984 120.548 105.683 120.159C107.831 119.933 108.993 120.656 109.169 122.327C109.294 123.52 109.134 126.01 108.687 129.798C107.869 138.089 106.455 146.442 104.444 154.859C102.432 163.275 99.9437 171.742 96.9777 180.258L99.8419 179.957C104.616 179.455 109.703 178.498 115.105 177.086C120.507 175.674 126.337 173.734 132.593 171.266C152.254 163.167 161.363 152.255 159.921 138.53C159.03 130.057 154.308 123.012 145.754 117.395C142.243 114.989 138.418 113.038 134.279 111.543C130.14 110.047 125.734 108.881 121.061 108.045C112.23 106.681 103.101 106.494 93.6727 107.485L90.2714 107.843C90.7531 120.461 89.2025 134.983 85.6197 151.407C83.7719 159.083 81.6194 166.73 79.1623 174.348C76.812 181.835 73.9718 189.252 70.6416 196.601C62.7811 214.802 54.2682 227.944 45.1028 236.026C40.0395 240.661 35.4791 243.191 31.4214 243.618C30.3473 243.731 29.7664 243.37 29.6786 242.534C29.6033 241.818 30.0368 241.35 30.979 241.13C32.6247 240.716 34.0851 240.261 35.3603 239.765C36.6354 239.269 37.7849 238.726 38.8088 238.136C44.1295 234.801 49.2619 229.677 54.2062 222.762C59.1631 215.967 63.9317 207.381 68.5123 197.005C72.1126 188.784 75.1697 180.559 77.6834 172.332C80.3165 164.091 82.5256 155.835 84.3107 147.563C85.7439 140.535 86.7845 133.789 87.4325 127.326C88.0679 120.744 88.3044 114.384 88.1421 108.247C77.3321 109.866 66.9709 112.886 57.0587 117.306C51.2923 119.843 46.2261 122.728 41.8602 125.962C37.6012 129.064 33.9827 132.522 31.0049 136.334C26.9465 141.345 25.2121 146.656 25.8016 152.265C26.2908 156.919 28.2876 160.993 31.7919 164.486C34.888 167.539 38.7317 169.669 43.323 170.875C44.0641 171.039 44.9905 171.243 46.1022 171.488C47.3333 171.721 48.7434 171.935 50.3325 172.13C51.0611 172.174 51.4504 172.434 51.5006 172.912C51.5633 173.508 51.1644 173.731 50.304 173.58L49.9459 173.618C42.5531 173.309 35.616 171.022 29.1346 166.756C21.887 162.088 17.8931 156.233 17.1531 149.192C16.6388 144.299 18.2506 139.544 21.9886 134.928C25.0858 131.104 29.1094 127.483 34.0594 124.067C39.1288 120.639 45.1968 117.527 52.2635 114.733C57.8163 112.46 63.5921 110.586 69.5908 109.111C75.5769 107.517 81.72 106.268 88.0201 105.364L86.7971 93.7284C86.7093 92.893 87.0234 92.4377 87.7394 92.3624C88.0975 92.3248 88.3079 92.6043 88.3706 93.201C89.2242 96.7312 89.8172 100.651 90.1494 104.96L98.205 104.113C103.098 103.599 107.778 103.348 112.243 103.361C116.709 103.375 121.075 103.579 125.339 103.976C136.092 105.259 145.115 107.87 152.406 111.809C162.141 117.181 167.485 124.402 168.439 133.472C169.367 142.304 165.845 150.698 157.873 158.655C151.767 164.847 143.745 170.034 133.808 174.215C122.25 179.05 109.649 182.003 96.0068 183.075C80.6743 225.47 60.1787 248.016 34.52 250.713Z" style="animation-delay: 0.12s"/>
<path class="seg" d="M200.956 209.872C197.734 210.21 195.052 208.803 192.911 205.65C191.19 203.055 190.142 199.968 189.765 196.388C189.577 194.598 189.49 192.616 189.503 190.443C189.622 188.137 189.842 185.641 190.163 182.952C184.401 200.451 177.521 209.62 169.526 210.46C164.632 210.975 161.854 208.069 161.189 201.744C160.123 191.6 163.912 180.584 172.556 168.695C181.295 156.555 190.558 149.971 200.344 148.942C204.998 148.453 207.539 150.237 207.965 154.295C208.492 159.307 205.677 164.671 199.521 170.386C196.963 179.342 196.161 188.355 197.114 197.425C197.829 204.228 199.678 207.472 202.662 207.159C206.6 206.745 212.971 198.474 221.773 182.345C222.389 181.315 222.875 180.781 223.233 180.744C223.591 180.706 223.796 180.926 223.846 181.403C223.909 182 223.733 182.622 223.318 183.269C214.258 200.389 206.804 209.257 200.956 209.872Z" style="animation-delay: 0.24s"/>
<path class="seg" d="M169.658 204.836C177.177 204.045 183.579 194.926 188.864 177.478C187.934 177.817 187.064 178.15 186.254 178.477C185.55 178.671 184.9 178.8 184.304 178.863C183.826 178.913 183.569 178.759 183.531 178.401C183.468 177.804 184.241 177.12 185.849 176.347C186.408 175.927 187.14 175.427 188.045 174.85C188.937 174.153 189.942 173.383 191.06 172.542C191.085 170.488 192.062 167.731 193.991 164.27C195.908 160.69 197.88 158.793 199.909 158.58C200.625 158.505 201.04 159.004 201.152 160.079C201.24 160.914 201.08 162.258 200.671 164.111C202.305 161.285 202.99 158.618 202.726 156.112C202.438 153.367 201.041 152.127 198.534 152.39C192.567 153.017 185.365 159.687 176.927 172.398C168.503 185.229 164.622 194.807 165.287 201.132C165.576 203.877 167.033 205.112 169.658 204.836Z" style="animation-delay: 0.36s"/>
<path class="seg" d="M247.885 206.749C241.918 207.376 238.552 204.05 237.787 196.77C237.235 191.519 237.864 184.877 239.674 176.844C239.034 175.342 238.054 174.058 236.735 172.99C235.404 171.802 233.739 170.891 231.742 170.257C230.115 169.704 228.435 169.217 226.702 168.796C225.088 168.362 223.408 167.875 221.662 167.334C220.035 166.781 219.127 165.61 218.939 163.82C218.739 161.91 219.455 160.689 221.088 160.155L225.921 159.647C232.246 158.982 238.795 157.57 245.566 155.41L245.707 155.034L254.775 127.656C255.234 126.28 255.775 124.534 256.397 122.418C257.019 120.301 257.789 117.867 258.706 115.116C259.435 112.868 261.649 111.549 265.349 111.16C267.855 110.897 269.171 111.362 269.296 112.555C269.334 112.913 267.653 118.158 264.253 128.289C260.772 138.79 258.818 144.304 258.391 144.832C258.177 145.096 257.803 145.557 257.269 146.217C256.842 146.744 256.302 147.344 255.648 148.016C255.259 148.902 254.693 150.409 253.952 152.538C255.679 151.753 258.616 150.419 262.762 148.535C267.014 146.52 272.476 143.955 279.147 140.84C279.612 140.671 280.023 140.567 280.381 140.53C280.727 140.373 280.959 140.288 281.079 140.275C281.556 140.225 281.807 140.32 281.832 140.558C282.045 142.587 272.369 147.526 252.802 155.374C250.904 160.279 249.296 164.49 247.976 168.008C246.644 171.405 245.667 174.163 245.045 176.279C243.895 180.261 243.09 184.086 242.631 187.754C242.279 191.291 242.278 194.73 242.629 198.071C243.043 202.009 244.563 203.841 247.188 203.565C250.411 203.226 254.409 200.513 259.183 195.426C261.677 192.751 263.524 190.807 264.724 189.595C265.912 188.264 266.505 187.598 266.505 187.598C266.863 187.56 267.061 187.721 267.099 188.079C267.136 188.437 267.014 188.992 266.731 189.746C265.123 192.811 262.399 196.174 258.561 199.835C254.069 204.169 250.511 206.473 247.885 206.749Z" style="animation-delay: 0.48s"/>
<path class="seg" d="M240.127 174.262C240.711 171.788 241.349 169.247 242.041 166.64C242.851 164.021 243.715 161.336 244.633 158.585C241.725 159.615 238.75 160.591 235.71 161.514C232.789 162.424 229.862 163.275 226.929 164.066C233.473 166.636 237.873 170.035 240.127 174.262Z" style="animation-delay: 0.60s"/>
<path class="seg" d="M278.427 201.548C277.591 201.636 276.479 201.391 275.091 200.813C273.678 199.996 272.94 199.289 272.878 198.693C273.16 197.939 273.377 197.132 273.528 196.271C273.798 195.398 274.128 194.519 274.518 193.634C276.189 188.873 277.682 184.131 278.995 179.408C280.309 174.684 281.324 169.993 282.041 165.332C282.783 160.91 282.846 155.776 282.232 149.928C282.118 151.146 281.531 153.018 280.469 155.543C279.514 157.936 278.204 160.969 276.539 164.644C274.98 168.186 273.545 171.172 272.232 173.603C271.025 175.901 270.014 177.757 269.197 179.171C269.209 179.29 269.096 179.362 268.858 179.387C268.261 179.45 267.938 179.243 267.887 178.765C267.862 178.526 267.903 178.341 268.01 178.209C268.707 176.809 269.399 175.348 270.083 173.829C270.888 172.296 271.739 170.638 272.637 168.854C275.308 163.265 277.378 158.281 278.849 153.903C280.319 149.526 281.303 145.682 281.799 142.372C282.189 139.193 283.22 137.517 284.891 137.341C286.8 137.14 288.006 139.427 288.507 144.2C289.41 152.793 287.776 163.643 283.603 176.751C289.195 167.959 293.105 162.118 295.336 159.229C301.373 151.234 306.301 147.036 310.12 146.635C313.939 146.233 316.112 148.539 316.639 153.551C317.003 157.012 316.368 160.156 314.734 162.982C312.818 166.562 310.905 168.452 308.996 168.653C308.638 168.69 308.433 168.471 308.383 167.993C308.383 167.993 308.883 166.432 309.882 163.311C310.881 160.189 311.268 157.554 311.042 155.406C310.703 152.184 309.52 150.68 307.491 150.893C304.746 151.181 300.474 155.31 294.676 163.28C290.052 169.799 286.766 175.273 284.818 179.701C284.736 180.071 284.35 181.56 283.658 184.166C282.967 186.773 281.924 190.623 280.529 195.717C280.365 196.458 280.155 197.325 279.897 198.317C279.746 199.177 279.542 200.104 279.284 201.096C279.07 201.36 278.785 201.511 278.427 201.548Z" style="animation-delay: 0.72s"/>
<path class="seg" d="M310.616 269.657C303.932 270.359 296.662 268.348 288.806 263.624C280.949 258.899 276.707 253.553 276.079 247.586C276.029 247.109 276.183 246.851 276.541 246.813C276.78 246.788 277.116 247.115 277.549 247.793C283.879 259.798 293.607 265.11 306.735 263.73C313.418 263.028 319.455 260.764 324.844 256.94C335.291 249.567 342.921 238.932 347.734 225.032C349.205 220.655 350.497 215.149 351.609 208.517C352.854 201.991 353.86 194.344 354.628 185.576C354.943 181.681 355.336 176.814 355.808 170.972C356.28 165.131 357.135 158.344 358.374 150.613L360.25 139.194C353.347 145.832 346.098 163.547 338.506 192.338C338.532 192.576 338.305 192.721 337.828 192.771C336.873 192.871 335.934 192.548 335.011 191.8C333.956 190.946 333.385 190.101 333.297 189.266C333.297 189.266 333.642 187.962 334.334 185.356C335.157 182.856 335.562 181.546 335.55 181.427C337.115 174.506 337.22 164.6 335.865 151.711C334.837 141.925 332.234 137.252 328.057 137.691C325.789 137.929 323.142 139.716 320.114 143.05C317.098 146.505 315.59 148.232 315.59 148.232C315.232 148.269 315.028 148.049 314.978 147.572C314.966 147.453 315.041 147.022 315.205 146.281C316.599 143.48 319.009 140.572 322.432 137.558C326.07 134.28 329.201 132.503 331.826 132.227C336.839 131.7 339.853 136.27 340.869 145.937C341.697 153.813 341.002 162.695 338.783 172.581C346.769 153.28 354.035 141.476 360.581 137.168C361.693 130.536 363.246 125.787 365.237 122.923C367.832 118.91 372.053 116.596 377.901 115.982C380.049 115.756 381.161 116.001 381.236 116.717C381.274 117.075 381.007 117.405 380.435 117.706C378.921 118.227 377.599 118.849 376.468 119.571C371.499 123.955 367.917 134.648 365.722 151.65C364.125 164.005 362.896 173.546 362.034 180.272C361.16 186.88 360.654 190.674 360.515 191.654C359.088 199.888 357.467 207.419 355.65 214.246C353.953 221.061 351.942 227.184 349.618 232.617C343.705 246.391 335.751 256.819 325.757 263.903C321.153 267.162 316.105 269.08 310.616 269.657Z" style="animation-delay: 0.84s"/>
<path class="seg" d="M416.539 148.119C414.988 148.282 414.118 147.468 413.93 145.678C413.855 144.962 414.043 143.313 414.496 140.732C415.068 138.138 415.266 136.006 415.091 134.335C414.526 128.964 412.096 126.505 407.799 126.957C405.651 127.182 402.994 128.306 399.828 130.328C396.794 132.457 395.158 133.534 394.919 133.559C394.442 133.609 394.184 133.455 394.147 133.097C393.971 131.427 396.135 129.63 400.639 127.709C404.094 126.139 407.074 125.223 409.58 124.959C416.025 124.282 419.655 127.822 420.47 135.579C420.696 137.728 420.523 140.099 419.951 142.693C419.228 146.147 418.091 147.956 416.539 148.119Z" style="animation-delay: 0.96s"/>
<path class="seg" d="M393.299 192.19C385.064 193.055 380.458 188.834 379.479 179.525C378.501 170.216 380.541 160.349 385.598 149.923C391.473 138.084 398.707 131.713 407.3 130.81C408.612 130.672 409.294 130.842 409.344 131.319C409.382 131.677 408.282 132.698 406.046 134.381C400.574 138.575 395.954 144.551 392.184 152.308C388.106 160.579 386.393 167.818 387.046 174.024C388.062 183.691 392.21 188.141 399.49 187.376C404.025 186.9 408.849 184.583 413.962 180.425C416.186 178.623 418.224 176.78 420.078 174.896C422.038 172.88 423.747 170.77 425.204 168.565C425.726 167.786 426.348 166.816 427.07 165.654C427.793 164.492 428.55 163.085 429.341 161.434C430.227 159.531 430.969 158.548 431.565 158.485C431.565 158.485 431.697 158.592 431.961 158.805C431.999 159.163 431.568 160.234 430.67 162.018C428.967 165.334 426.84 168.635 424.29 171.919C421.726 175.084 418.673 178.181 415.13 181.207C407.378 187.814 400.101 191.475 393.299 192.19Z" style="animation-delay: 1.08s"/>
<path class="seg" d="M452.537 121.711C450.15 121.962 448.825 120.835 448.562 118.328C448.424 117.016 448.989 115.508 450.258 113.806C450.874 112.776 451.515 111.985 452.181 111.432C452.834 110.76 453.44 110.214 453.999 109.793C458.082 107.313 460.542 106.029 461.377 105.941C461.616 105.916 461.748 106.023 461.773 106.261C461.823 106.739 460.692 108.607 458.38 111.867C458.273 111.999 458.091 112.561 457.833 113.553C457.563 114.426 457.045 115.808 456.278 117.698C455.455 120.198 454.208 121.536 452.537 121.711Z" style="animation-delay: 1.20s"/>
<path class="seg" d="M371.593 259.085C361.33 260.164 355.746 256.407 354.843 247.814C354.053 240.295 357.157 231.945 364.156 222.763C366.801 219.228 369.763 215.839 373.042 212.599C376.334 209.478 379.883 206.51 383.69 203.697C399.476 192.023 418.622 184.762 441.127 181.914C441.442 180.312 441.665 178.419 441.797 176.233C442.036 173.915 442.131 171.371 442.081 168.601C442.019 165.712 442.06 163.234 442.205 161.168C442.337 158.982 442.46 157.28 442.573 156.061C439.438 159.528 437.692 161.28 437.334 161.318C437.214 161.33 437.142 161.217 437.117 160.978C437.004 159.904 437.802 158.312 439.511 156.202C440.152 155.411 440.799 154.679 441.452 154.007C442.093 153.216 442.674 152.431 443.196 151.652C443.579 149.56 444.003 147.284 444.468 144.821C445.053 142.347 445.625 139.753 446.184 137.039C446.763 135.651 448.364 134.819 450.99 134.543C452.78 134.355 453.738 134.858 453.863 136.051C453.938 136.767 453.907 137.615 453.769 138.595C453.618 139.456 453.426 140.501 453.193 141.733C452.841 142.976 452.464 143.981 452.062 144.747C451.648 145.394 451.214 145.862 450.762 146.151C450.485 148.111 450.205 150.614 449.922 153.66C449.627 156.587 449.381 159.991 449.186 163.873C448.701 171.887 448.223 177.669 447.751 181.218C451.344 180.961 454.638 180.735 457.634 180.541C460.643 180.466 463.366 180.542 465.803 180.768C467.009 180.762 467.637 180.998 467.687 181.475C467.787 182.43 466.763 183.02 464.615 183.246C464.496 183.259 464.191 183.23 463.701 183.161C463.224 183.211 462.502 183.227 461.534 183.208C459.481 183.182 457.254 183.235 454.854 183.367C452.574 183.486 450.122 183.683 447.496 183.959C445.603 196.948 439.619 209.463 429.542 221.502C420.759 232.078 410.077 241.224 397.495 248.942C387.268 254.964 378.634 258.345 371.593 259.085Z" style="animation-delay: 1.32s"/>
<path class="seg" d="M373.035 253.866C388.669 252.222 403.262 244.113 416.812 229.536C429.829 215.62 437.855 200.719 440.891 184.835C431.501 186.184 421.485 189.046 410.844 193.422C400.229 198.037 391.12 203.218 383.519 208.964C380.498 211.212 377.621 213.686 374.888 216.387C372.048 219.219 369.413 222.271 366.982 225.543C360.586 233.576 357.696 240.516 358.311 246.364C358.938 252.331 363.846 254.831 373.035 253.866Z" style="animation-delay: 1.44s"/>
<path class="seg" d="M503.392 178.085C500.17 178.423 497.488 177.016 495.346 173.862C493.626 171.268 492.577 168.181 492.201 164.6C492.013 162.81 491.925 160.829 491.938 158.655C492.058 156.35 492.278 153.853 492.599 151.165C486.836 168.663 479.957 177.833 471.961 178.673C467.068 179.187 464.289 176.282 463.624 169.957C462.558 159.813 466.347 148.796 474.992 136.908C483.731 124.768 492.993 118.183 502.78 117.155C507.434 116.666 509.974 118.45 510.401 122.507C510.928 127.52 508.113 132.883 501.957 138.598C499.399 147.555 498.596 156.568 499.55 165.638C500.265 172.44 502.114 175.685 505.098 175.371C509.036 174.957 515.406 166.686 524.209 150.558C524.824 149.528 525.311 148.994 525.669 148.956C526.027 148.919 526.231 149.139 526.281 149.616C526.344 150.213 526.168 150.834 525.754 151.481C516.694 168.602 509.24 177.47 503.392 178.085Z" style="animation-delay: 1.56s"/>
<path class="seg" d="M472.094 173.048C479.613 172.258 486.014 163.139 491.3 145.691C490.37 146.03 489.5 146.363 488.69 146.689C487.986 146.884 487.336 147.013 486.739 147.075C486.262 147.125 486.004 146.972 485.967 146.614C485.904 146.017 486.677 145.332 488.285 144.56C488.844 144.139 489.576 143.64 490.48 143.062C491.372 142.365 492.377 141.596 493.496 140.754C493.521 138.701 494.498 135.943 496.427 132.483C498.343 128.903 500.316 127.006 502.345 126.793C503.061 126.718 503.475 127.217 503.588 128.291C503.676 129.127 503.516 130.471 503.107 132.324C504.74 129.497 505.426 126.831 505.162 124.325C504.874 121.58 503.476 120.339 500.97 120.603C495.003 121.23 487.801 127.899 479.363 140.611C470.938 153.442 467.058 163.02 467.723 169.345C468.011 172.09 469.468 173.324 472.094 173.048Z" style="animation-delay: 1.68s"/>
<path class="seg" d="M609.001 181.283C597.425 182.5 587.58 181.242 579.465 177.51C569.341 173.023 563.72 165.469 562.604 154.848C561.525 144.584 564.513 135.703 571.568 128.205C578.516 120.838 587.062 116.622 597.206 115.556C602.816 114.966 605.67 115.149 605.771 116.103C605.796 116.342 603.72 116.681 599.543 117.12C590.115 118.111 582.181 121.841 575.742 128.309C568.838 134.947 565.913 143.279 566.966 153.303C567.982 162.97 572.24 170.185 579.739 174.947C586.986 179.615 595.384 181.447 604.931 180.444C613.763 179.515 623.204 176.351 633.254 170.951C650.284 161.922 658.002 149.829 656.409 134.672C655.957 130.376 654.516 126.425 652.086 122.819C649.643 119.094 646.177 115.959 641.686 113.415C637.698 111.059 633.682 109.007 629.637 107.26C625.699 105.382 621.683 103.33 617.588 101.106C613.242 98.7877 609.872 96.0046 607.48 92.757C605.087 89.5093 603.696 86.0356 603.307 82.336C602.756 77.0849 604.223 72.1042 607.71 67.394C604.167 68.1283 601.306 70.1786 599.126 73.5449C597.09 77.1374 596.26 80.7238 596.637 84.304C597.051 88.2424 598.4 91.9013 600.686 95.2809C602.972 98.6605 606.241 101.635 610.493 104.205C614.23 106.466 618.02 108.662 621.864 110.792C625.814 112.79 629.705 114.794 633.536 116.805C641.826 122.208 646.429 129.266 647.345 137.978C648.223 146.332 644.754 154.66 636.939 162.962C633.258 166.969 629.357 170.033 625.236 172.156C621.128 174.398 616.986 175.738 612.809 176.177C612.212 176.24 611.895 176.092 611.857 175.734C611.782 175.018 612.162 174.616 612.997 174.528C615.001 174.076 616.76 173.59 618.274 173.069C619.787 172.548 621.122 172.045 622.278 171.562C628.447 168.259 633.695 163.665 638.024 157.78C642.754 151.129 644.787 144.641 644.123 138.316C643.684 134.139 642.315 130.301 640.017 126.802C637.838 123.291 634.688 120.304 630.568 117.841C626.951 115.567 623.232 113.484 619.414 111.593C615.595 109.701 611.817 107.625 608.081 105.363C603.841 102.913 600.572 99.9383 598.274 96.4394C596.083 92.8085 594.767 88.9046 594.328 84.7277C593.864 80.312 594.948 76.2766 597.581 72.6214C598.956 70.7875 600.555 69.3525 602.377 68.3164C604.186 67.161 606.224 66.4641 608.492 66.2258L608.671 66.207C616.291 57.2011 627.143 51.9581 641.225 50.478C653.875 49.1484 662.835 51.1629 668.104 56.5215C669.724 58.1611 670.641 59.9953 670.854 62.0241C671.268 65.9624 669.063 69.0901 664.239 71.407C660.809 73.2154 656.767 74.3643 652.113 74.8534C649.845 75.0918 647.446 75.2233 644.914 75.248C642.371 75.1534 639.689 74.8923 636.869 74.4648C633.584 74.2067 630.757 73.7195 628.389 73.0031C626.009 72.1673 623.986 71.2939 622.322 70.3829C622.058 70.1693 621.92 70.0028 621.908 69.8835C621.87 69.5255 622.03 69.3276 622.388 69.29C622.627 69.2649 622.812 69.3058 622.944 69.4126C630.079 73.0065 639.554 74.1825 651.369 72.9407C653.397 72.7275 655.228 72.3541 656.862 71.8204C658.495 71.2868 660.002 70.706 661.384 70.0781C665.134 67.8741 666.853 65.2802 666.539 62.2967C666.088 58.0003 662.646 55.1042 656.214 53.6083C651.384 52.4267 646.463 52.0993 641.451 52.6261C626.652 54.1815 616.963 60.147 612.382 70.5227C611.025 73.6818 610.516 76.8726 610.854 80.0948C611.62 87.3747 616.348 93.3331 625.041 97.9699C628.991 99.9679 632.942 101.966 636.892 103.964C640.962 105.949 644.972 107.941 648.923 109.939C657.74 115.769 662.657 123.518 663.673 133.185C665.053 146.312 659.367 157.649 646.615 167.194C635.741 175.094 623.203 179.79 609.001 181.283Z" style="animation-delay: 1.80s"/>
<path class="seg" d="M640.594 230.812C630.33 231.891 624.747 228.134 623.844 219.541C623.041 211.903 626.086 203.559 632.977 194.509C638.28 187.557 644.851 181.195 652.69 175.424C668.477 163.75 687.622 156.489 710.128 153.641C711.197 147.737 711.493 142.517 711.016 137.982C710.1 129.27 706.719 125.221 700.871 125.836C698.842 126.049 696.125 127.18 692.721 129.227C691.138 130.238 689.894 131.032 688.989 131.61C688.192 132.056 687.793 132.278 687.793 132.278C686.599 132.404 685.946 131.93 685.833 130.855C685.783 130.378 686.025 129.81 686.559 129.15C688.067 127.423 689.549 125.457 691.007 123.253C692.584 121.036 694.142 118.64 695.681 116.065C699.564 109.383 701.361 104.669 701.073 101.924C700.884 100.134 699.955 99.3266 698.284 99.5022C692.436 100.117 684.326 111.346 673.952 133.19C673.669 133.944 673.289 134.346 672.812 134.396C672.335 134.446 672.065 134.173 672.002 133.576C671.952 133.099 672.081 132.603 672.388 132.088C673.168 130.316 674.047 128.354 675.027 126.199C676.008 124.045 677.088 121.699 678.269 119.162C685.037 104.333 691.702 96.5742 698.266 95.8843C703.636 95.3199 706.51 96.8278 706.886 100.408C707.463 105.898 704.051 113.617 696.65 123.565C699.779 121.185 702.477 119.876 704.744 119.637C711.666 118.91 715.767 124.632 717.046 136.805C717.36 139.789 717.475 142.612 717.393 145.276C717.311 147.939 717.097 150.495 716.752 152.945C718.316 152.901 719.945 152.911 721.641 152.974C723.35 153.156 725.13 153.452 726.983 153.86C731.694 155.054 734.168 156.785 734.407 159.053C734.658 161.439 734.067 162.708 732.635 162.859C732.277 162.896 732.073 162.676 732.023 162.199C731.985 161.841 732.019 161.596 732.126 161.464C732.221 161.213 732.249 160.908 732.211 160.55C732.036 158.88 729.724 157.554 725.278 156.573C721.93 155.719 719.003 155.423 716.497 155.686C714.604 168.675 708.619 181.189 698.543 193.229C689.76 203.805 679.078 212.951 666.495 220.669C656.269 226.691 647.635 230.072 640.594 230.812Z" style="animation-delay: 1.92s"/>
<path class="seg" d="M641.857 225.611C657.372 223.981 672.023 215.865 685.813 201.263C698.829 187.346 706.856 172.446 709.892 156.561C700.382 157.923 690.307 160.792 679.666 165.168C668.931 169.796 659.882 174.97 652.52 180.691C649.379 182.951 646.448 185.492 643.728 188.311C641.008 191.131 638.426 194.117 635.982 197.27C629.612 205.541 626.722 212.481 627.311 218.091C627.938 224.058 632.787 226.565 641.857 225.611Z" style="animation-delay: 2.04s"/>
<path class="seg" d="M741.169 153.998C732.696 154.889 727.882 149.844 726.728 138.865C726.552 137.194 726.424 135.397 726.342 133.475C726.368 131.422 726.5 129.236 726.739 126.918C726.224 126.61 725.697 126.183 725.157 125.636C724.604 124.971 724.039 124.185 723.461 123.281C723.951 123.35 724.453 123.538 724.968 123.846C725.59 124.022 726.331 124.186 727.192 124.337C727.877 118.232 730.837 111.948 736.07 105.485C741.718 98.376 747.346 94.5266 752.955 93.9371C754.268 93.7991 754.943 93.9091 754.981 94.2671C755.006 94.5058 754.233 95.1903 752.663 96.3207C748.498 99.1716 744.77 103.304 741.477 108.718C737.947 114.157 735.55 119.476 734.286 124.677C734.418 124.784 734.484 124.837 734.484 124.837C734.484 124.837 734.55 124.891 734.682 124.997C740.41 124.395 746.089 121.023 751.718 114.881C757.347 108.739 759.86 102.804 759.258 97.0755C759.082 95.4047 758.436 93.8437 757.318 92.3926C756.332 91.0483 754.944 90.4702 753.154 90.6584C750.886 90.8967 748.295 92.074 745.38 94.1903C742.597 96.4133 741.027 97.5437 740.669 97.5813C740.43 97.6064 740.305 97.5593 740.292 97.4399C740.142 96.0078 742.067 94.2368 746.068 92.127C749.498 90.3186 752.227 89.3078 754.256 89.0945C757.121 88.7935 759.47 89.3309 761.303 90.7068C763.376 92.0575 764.556 94.1053 764.845 96.8502C765.51 103.175 762.038 109.754 754.431 116.587C747.584 122.616 740.73 126.292 733.871 127.616C733.218 130.581 733.029 133.376 733.305 136.002C734.346 145.907 738.447 150.483 745.607 149.731C751.097 149.154 756.574 146.165 762.04 140.764C766.638 136.299 770.314 131.086 773.066 125.126C773.964 123.342 774.771 122.413 775.487 122.337C775.607 122.325 775.679 122.438 775.704 122.677C775.754 123.154 775.39 124.278 774.611 126.049C771.526 132.286 766.899 138.202 760.73 143.798C754.014 149.933 747.494 153.333 741.169 153.998Z" style="animation-delay: 2.16s"/>
<path class="seg" d="M781.725 147.383C778.264 147.746 776.296 145.661 775.819 141.126C775.041 133.726 777.339 124.013 782.711 111.986C782.284 112.513 781.059 114.633 779.035 118.345C776.893 122.069 775.643 123.95 775.285 123.988C775.046 124.013 774.908 123.846 774.87 123.488C774.72 122.056 776.991 117.836 781.684 110.827C783.877 107.58 785.708 104.914 787.178 102.829C788.768 100.731 790.055 99.2079 791.042 98.2596C793.467 96.0742 795.634 94.8811 797.543 94.6804C798.856 94.5425 799.55 94.8315 799.625 95.5475C799.663 95.9056 799.462 96.2887 799.022 96.6969C797.326 98.9264 795.526 101.891 793.622 105.59C791.706 109.17 789.626 113.491 787.383 118.553C782.306 129.946 779.962 137.493 780.351 141.192C780.501 142.624 781.054 143.29 782.009 143.19C789.527 142.4 798.696 131.481 809.516 110.435C810.012 109.418 810.603 108.149 811.287 106.629C812.079 104.977 812.971 103.134 813.964 101.099C814.354 100.214 815.623 99.6579 817.771 99.4321C820.277 99.1687 821.624 99.9321 821.812 101.722C818.017 109.24 816.534 116.937 817.362 124.814C817.964 130.542 819.816 133.244 822.919 132.917C825.903 132.604 829.085 129.012 832.465 122.141C833.753 119.471 834.815 116.946 835.651 114.566C836.593 112.054 837.256 109.752 837.64 107.66C833.64 98.3071 831.584 93.0935 831.471 92.0194C831.258 89.9906 832.046 88.8821 833.836 88.694C835.865 88.4807 837.859 89.6588 839.818 92.228C841.382 94.4769 842.283 96.7351 842.521 99.0026C842.785 101.509 842.452 104.078 841.521 106.709C841.729 107.532 841.93 108.295 842.124 108.999C842.438 109.69 842.692 110.387 842.887 111.091C843.408 112.604 844.262 113.842 845.449 114.803C845.989 115.35 846.291 115.921 846.353 116.518C846.403 116.995 846.25 117.253 845.891 117.291C844.817 117.403 842.56 114.865 839.119 109.677C838.062 115.7 836.454 121.058 834.292 125.749C831.138 132.476 827.472 136.059 823.295 136.498C819.238 136.924 815.997 135.938 813.573 133.538C811.136 131.019 809.698 127.671 809.259 123.494C809.059 121.584 809.037 119.656 809.194 117.709C807.548 120.416 805.729 123.201 803.738 126.065C801.746 128.929 799.522 131.877 797.066 134.911C790.539 142.836 785.425 146.994 781.725 147.383Z" style="animation-delay: 2.28s"/>
<path class="seg" d="M886.975 98.6741C885.424 98.8372 884.554 98.0236 884.366 96.2335C884.291 95.5174 884.479 93.8687 884.932 91.2872C885.504 88.6932 885.702 86.5608 885.527 84.89C884.962 79.5196 882.532 77.0602 878.235 77.5117C876.087 77.7375 873.43 78.8614 870.264 80.8834C867.23 83.0122 865.594 84.0892 865.355 84.1143C864.878 84.1644 864.62 84.0105 864.583 83.6525C864.407 81.9817 866.571 80.1856 871.075 78.2643C874.53 76.6946 877.51 75.778 880.016 75.5146C886.461 74.8373 890.091 78.3773 890.906 86.1345C891.132 88.2827 890.959 90.6538 890.387 93.2478C889.664 96.7023 888.527 98.511 886.975 98.6741Z" style="animation-delay: 2.40s"/>
<path class="seg" d="M863.735 142.745C855.5 143.61 850.894 139.389 849.915 130.08C848.937 120.771 850.977 110.904 856.034 100.478C861.909 88.6393 869.143 82.2682 877.736 81.3651C879.048 81.2271 879.73 81.3968 879.78 81.8742C879.818 82.2322 878.718 83.2527 876.482 84.9357C871.01 89.1306 866.39 95.1063 862.62 102.863C858.542 111.134 856.829 118.373 857.482 124.579C858.498 134.246 862.646 138.696 869.926 137.931C874.461 137.455 879.285 135.138 884.398 130.98C886.622 129.178 888.661 127.335 890.514 125.451C892.474 123.435 894.183 121.325 895.64 119.12C896.162 118.342 896.784 117.371 897.506 116.209C898.229 115.048 898.986 113.641 899.777 111.989C900.663 110.086 901.405 109.103 902.001 109.04C902.001 109.04 902.133 109.147 902.397 109.361C902.435 109.719 902.004 110.79 901.106 112.573C899.403 115.889 897.276 119.19 894.726 122.474C892.163 125.64 889.109 128.736 885.566 131.763C877.815 138.369 870.537 142.03 863.735 142.745Z" style="animation-delay: 2.52s"/>
<path class="seg" d="M869.955 206.705C859.692 207.784 854.109 204.027 853.205 195.434C852.403 187.796 855.447 179.452 862.339 170.402C867.641 163.45 874.212 157.088 882.052 151.317C897.838 139.643 916.984 132.382 939.49 129.534C940.558 123.63 940.854 118.41 940.378 113.875C939.462 105.163 936.08 101.115 930.233 101.729C928.204 101.942 925.487 103.073 922.082 105.12C920.499 106.131 919.256 106.925 918.351 107.503C917.553 107.949 917.154 108.172 917.154 108.172C915.961 108.297 915.308 107.823 915.195 106.749C915.145 106.271 915.387 105.703 915.921 105.043C917.428 103.316 918.911 101.351 920.368 99.1462C921.945 96.9292 923.503 94.5332 925.043 91.9582C928.925 85.2757 930.723 80.562 930.434 77.8172C930.246 76.027 929.316 75.2198 927.646 75.3954C921.798 76.01 913.687 87.2393 903.314 109.083C903.031 109.837 902.651 110.239 902.174 110.289C901.696 110.339 901.426 110.066 901.363 109.469C901.313 108.992 901.442 108.496 901.75 107.981C902.529 106.21 903.409 104.247 904.389 102.093C905.369 99.9384 906.45 97.5925 907.631 95.0552C914.398 80.2266 921.064 72.4673 927.627 71.7775C932.998 71.213 935.871 72.7209 936.248 76.3012C936.825 81.791 933.413 89.5099 926.012 99.458C929.14 97.0779 931.838 95.7687 934.106 95.5304C941.028 94.8029 945.128 100.526 946.408 112.699C946.721 115.682 946.837 118.505 946.755 121.169C946.673 123.832 946.459 126.388 946.113 128.838C947.677 128.794 949.307 128.804 951.003 128.867C952.711 129.049 954.492 129.345 956.345 129.753C961.055 130.947 963.53 132.678 963.768 134.946C964.019 137.333 963.429 138.601 961.996 138.752C961.638 138.789 961.434 138.57 961.384 138.092C961.347 137.734 961.381 137.489 961.488 137.357C961.582 137.106 961.61 136.801 961.573 136.443C961.397 134.773 959.086 133.447 954.639 132.466C951.291 131.612 948.365 131.316 945.858 131.579C943.966 144.568 937.981 157.083 927.904 169.122C919.122 179.698 908.439 188.844 895.857 196.562C885.63 202.584 876.996 205.965 869.955 206.705Z" style="animation-delay: 2.64s"/>
<path class="seg" d="M871.219 201.504C886.733 199.874 901.385 191.758 915.174 177.156C928.191 163.24 936.217 148.339 939.254 132.455C929.744 133.816 919.669 136.685 909.028 141.061C898.293 145.689 889.244 150.863 881.882 156.584C878.741 158.844 875.81 161.385 873.09 164.205C870.37 167.024 867.788 170.011 865.344 173.163C858.974 181.434 856.083 188.375 856.673 193.984C857.3 199.951 862.149 202.458 871.219 201.504Z" style="animation-delay: 2.76s"/>
<path class="seg" d="M942.584 203.234C935.901 203.937 928.631 201.926 920.774 197.201C912.917 192.476 908.675 187.13 908.048 181.163C907.997 180.686 908.151 180.428 908.509 180.391C908.748 180.366 909.084 180.692 909.517 181.371C915.847 193.375 925.575 198.687 938.703 197.307C945.386 196.605 951.423 194.342 956.812 190.517C967.259 183.145 974.889 172.509 979.703 158.61C981.173 154.232 982.465 148.727 983.577 142.094C984.822 135.568 985.828 127.921 986.596 119.153C986.911 115.259 987.304 110.391 987.776 104.55C988.248 98.7084 989.103 91.9218 990.342 84.19L992.219 72.7713C985.315 79.4093 978.067 97.124 970.475 125.915C970.5 126.154 970.273 126.298 969.796 126.349C968.841 126.449 967.902 126.125 966.979 125.378C965.924 124.523 965.353 123.678 965.265 122.843C965.265 122.843 965.61 121.54 966.302 118.933C967.125 116.433 967.53 115.124 967.518 115.005C969.083 108.083 969.188 98.1778 967.833 85.2888C966.805 75.5027 964.202 70.8292 960.025 71.2682C957.758 71.5065 955.11 73.2931 952.082 76.6278C949.066 80.082 947.559 81.809 947.559 81.809C947.201 81.8467 946.997 81.6268 946.946 81.1494C946.934 81.0301 947.009 80.5998 947.173 79.8587C948.568 77.0576 950.977 74.1498 954.4 71.1354C958.038 67.8572 961.169 66.0802 963.795 65.8042C968.807 65.2774 971.821 69.8474 972.837 79.5141C973.665 87.3907 972.97 96.2721 970.751 106.158C978.737 86.8576 986.003 75.0535 992.549 70.7457C993.661 64.113 995.214 59.3648 997.205 56.5009C999.8 52.4877 1004.02 50.1738 1009.87 49.5592C1012.02 49.3334 1013.13 49.5785 1013.2 50.2946C1013.24 50.6526 1012.97 50.9823 1012.4 51.2837C1010.89 51.8048 1009.57 52.4264 1008.44 53.1486C1003.47 57.532 999.885 68.225 997.691 85.2275C996.093 97.5822 994.864 107.123 994.002 113.85C993.128 120.457 992.622 124.251 992.484 125.231C991.056 133.465 989.435 140.996 987.618 147.823C985.922 154.638 983.911 160.762 981.586 166.195C975.673 179.968 967.72 190.396 957.725 197.48C953.121 200.739 948.074 202.657 942.584 203.234Z" style="animation-delay: 2.88s"/>
<path class="seg" d="M1061.62 125.566C1056.02 126.155 1049.17 123.616 1041.1 117.95C1034.97 113.646 1029.37 108.564 1024.29 102.703C1023.3 104.738 1022.36 106.707 1021.47 108.61C1020.59 110.513 1019.65 112.482 1018.65 114.517C1016.27 119.353 1013.87 122.983 1011.47 125.407C1010.81 128.252 1009.1 129.819 1006.36 130.108C1005.04 130.245 1004.34 129.837 1004.24 128.882C1003.89 125.541 1006.24 114.615 1011.29 96.1056L1007.93 96.8211C1007.21 96.8964 1006.84 96.8147 1006.81 96.576C1006.64 94.9052 1008.33 93.822 1011.9 93.3263C1013.34 88.5906 1014.85 83.4843 1016.45 78.0075C1018.03 72.4113 1019.77 66.5576 1021.66 60.4464C1016.48 64.007 1012.7 65.9127 1010.31 66.1635C1009.84 66.2137 1009.58 66.0598 1009.54 65.7018C1009.42 64.5083 1010.15 63.4658 1011.75 62.5741C1011.96 62.3103 1012.3 62.0937 1012.76 61.9242C1013.34 61.6228 1013.96 61.2554 1014.64 60.8222C1017.93 58.7876 1020.83 56.6117 1023.37 54.2943C1024.55 50.6703 1026.06 46.1074 1027.9 40.6054C1029.72 34.9841 1031.87 28.4239 1034.34 20.9246C1034.89 19.2979 1035.53 17.3603 1036.26 15.1118C1036.99 12.8633 1037.85 10.1783 1038.85 7.05671C1039.88 4.17385 1042.54 2.50664 1046.83 2.05508C1049.1 1.81676 1050.3 2.35398 1050.44 3.66674C1050.49 4.14411 1050.12 5.81169 1049.34 8.66946C1048.14 13.3801 1046.4 18.6308 1044.12 24.4216C1041.95 30.1999 1039.23 36.4585 1035.95 43.1976C1035.45 44.0957 1034.78 45.2514 1033.97 46.6645C1033.15 48.0776 1032.3 49.7357 1031.41 51.6387C1030.82 52.9074 1030.15 54.5466 1029.39 56.5565C1028.76 58.5538 1027.91 60.8148 1026.85 63.3396C1024.48 69.501 1021.14 79.0823 1016.84 92.0835C1018.99 89.5651 1020.42 88.2683 1021.14 88.193C1022.09 88.0927 1023 88.6612 1023.85 89.8988C1024.08 89.7543 1024.59 89.5189 1025.4 89.1924C1026.32 88.734 1027.46 88.1312 1028.83 87.384C1029.21 86.379 1029.69 85.1826 1030.27 83.7945C1030.95 82.2746 1031.73 80.5035 1032.6 78.4811C1033.77 75.8244 1035.07 73.2148 1036.49 70.6523C1038.03 68.0773 1039.69 65.5495 1041.48 63.0687C1046.43 56.154 1050.69 52.5085 1054.27 52.1322C1058.09 51.7308 1060.42 55.5281 1061.26 63.5241C1062.3 73.4295 1052.22 82.0299 1031.03 89.3252C1030.46 90.8325 1029.42 92.9334 1027.89 95.6277C1032.28 101.803 1037.39 107.359 1043.22 112.297C1050.9 118.849 1057.49 121.837 1062.98 121.26C1065.37 121.009 1067.31 119.961 1068.81 118.114C1070.54 116.243 1071.47 115.301 1071.59 115.288C1072.06 115.238 1072.33 115.452 1072.38 115.929C1072.4 116.168 1072.33 116.658 1072.17 117.399C1069.79 122.354 1066.28 125.076 1061.62 125.566Z" style="animation-delay: 3.00s"/>
<path class="seg" d="M1032.32 86.1126C1046.55 79.1868 1053.24 71.6066 1052.37 63.3719C1052.02 60.0303 1051.07 58.4411 1049.52 58.6041C1046.89 58.8801 1042.37 65.2076 1035.95 77.5866C1035.56 78.4722 1035.02 79.6749 1034.34 81.1948C1033.76 82.5828 1033.09 84.2221 1032.32 86.1126Z" style="animation-delay: 3.12s"/>
<path class="seg" d="M1011.81 121.751C1015.58 116.287 1019.26 109.325 1022.83 100.865C1022.27 100.08 1021.62 99.1222 1020.9 97.9915C1020.18 96.8608 1019.31 95.5039 1018.3 93.9209L1016.35 94.3069C1015.47 97.4159 1014.67 101.241 1013.94 105.782C1013.21 110.323 1012.5 115.646 1011.81 121.751Z" style="animation-delay: 3.24s"/>
</svg>
